<svg width="75" height="45" viewBox="0 0 75 45" fill="none" xmlns="http://www.w3.org/2000/svg">
  <path d="M22.368 16.408q0 4.176-2.88 6.96-2.832 2.736-8.688 2.736H4.368v13.968H0V6.616h10.8q5.664 0 8.592 2.736 2.976 2.736 2.976 7.056M10.8 22.504q3.648 0 5.376-1.584t1.728-4.512q0-6.192-7.104-6.192H4.368v12.288zm52.564 17.904q-3.312 0-5.952-1.152-2.592-1.2-4.08-3.264-1.488-2.112-1.536-4.848h4.656q.24 2.352 1.92 3.984 1.728 1.584 4.992 1.584 3.12 0 4.896-1.536 1.824-1.584 1.824-4.032 0-1.92-1.056-3.12t-2.64-1.824-4.272-1.344q-3.312-.864-5.328-1.728-1.968-.864-3.408-2.688-1.392-1.872-1.392-4.992 0-2.736 1.392-4.848t3.888-3.264q2.544-1.152 5.808-1.152 4.704 0 7.68 2.352 3.024 2.352 3.408 6.24h-4.8q-.24-1.92-2.016-3.36-1.776-1.488-4.704-1.488-2.736 0-4.464 1.44-1.728 1.392-1.728 3.936 0 1.824 1.008 2.976a7.2 7.2 0 0 0 2.544 1.776q1.536.576 4.272 1.344 3.312.912 5.328 1.824 2.016.864 3.456 2.736 1.44 1.824 1.44 4.992 0 2.448-1.296 4.608t-3.84 3.504-6 1.344m-26.376-7.576q-2.756 0-5.03-1.303-2.272-1.333-3.609-3.679-1.307-2.375-1.307-5.33t1.307-5.3q1.335-2.376 3.61-3.679 2.273-1.332 5.03-1.332c1.856 0 10.23-13.054 11.745-12.166 1.516.87-3.978 15.584-3.107 17.148q1.308 2.346 1.308 5.33 0 2.982-1.308 5.33-1.307 2.345-3.58 3.678-2.274 1.303-5.059 1.303m0-2.288q2.075 0 3.723-.985 1.677-.985 2.615-2.81.966-1.825.966-4.228 0-2.434-.966-4.23-.939-1.824-2.586-2.81-1.65-.984-3.752-.984t-3.75.985q-1.65.984-2.615 2.81-.938 1.795-.938 4.228 0 2.404.938 4.23.966 1.824 2.614 2.81 1.677.984 3.751.984" fill="#fff"/>
  <path d="M37.012 12.168q2.756 0 5.03 1.303 2.273 1.333 3.609 3.679 1.307 2.375 1.307 5.33t-1.307 5.3q-1.336 2.376-3.61 3.679-2.273 1.332-5.03 1.332c-1.856 0-10.23 13.054-11.745 12.166-1.516-.87 3.978-15.584 3.107-17.148q-1.308-2.345-1.308-5.33 0-2.982 1.307-5.33 1.308-2.345 3.581-3.678 2.274-1.303 5.059-1.303m0 2.288q-2.075 0-3.723.985-1.677.984-2.615 2.81-.966 1.824-.966 4.229 0 2.432.966 4.229.939 1.824 2.586 2.81 1.65.984 3.752.984t3.75-.985q1.65-.984 2.615-2.81.938-1.795.938-4.228 0-2.404-.938-4.23-.966-1.824-2.614-2.81-1.677-.984-3.751-.984" fill="#fff"/>
</svg>
