<svg width="22" height="41" viewBox="0 0 22 41" fill="none" xmlns="http://www.w3.org/2000/svg">
<path d="M10.9894 29.9137C9.30483 29.9137 7.7679 29.5179 6.37858 28.7261C4.98926 27.9168 3.88648 26.7996 3.07026 25.3745C2.2714 23.9318 1.87197 22.3132 1.87197 20.5187C1.87197 18.7241 2.2714 17.1143 3.07026 15.6892C3.88648 14.2465 4.98926 13.1293 6.37858 12.3376C7.7679 11.5282 9.30483 11.1236 10.9894 11.1236C12.6913 11.1236 20.3668 -0.769807 21.7561 0.0395065C23.1455 0.831226 18.1096 14.2377 18.9085 15.6628C19.7074 17.0879 20.1068 18.7065 20.1068 20.5187C20.1068 22.3308 19.7074 23.9494 18.9085 25.3745C18.1096 26.7996 17.0156 27.9168 15.6262 28.7261C14.2369 29.5179 12.6913 29.9137 10.9894 29.9137ZM10.9894 27.8289C12.2571 27.8289 13.3946 27.5298 14.4019 26.9316C15.4265 26.3334 16.2254 25.4801 16.7985 24.3717C17.3889 23.2633 17.6842 21.9789 17.6842 20.5187C17.6842 19.0408 17.3889 17.7564 16.7985 16.6656C16.2254 15.5572 15.4352 14.7039 14.428 14.1057C13.4207 13.5075 12.2745 13.2084 10.9894 13.2084C9.70426 13.2084 8.55807 13.5075 7.55082 14.1057C6.54356 14.7039 5.7447 15.5572 5.15424 16.6656C4.58114 17.7564 4.2946 19.0408 4.2946 20.5187C4.2946 21.9789 4.58114 23.2633 5.15424 24.3717C5.7447 25.4801 6.54356 26.3334 7.55082 26.9316C8.57544 27.5298 9.72163 27.8289 10.9894 27.8289Z" fill="white"/>
<path d="M11.0106 11.0863C12.6952 11.0863 14.2321 11.4821 15.6214 12.2739C17.0107 13.0832 18.1135 14.2004 18.9297 15.6255C19.7286 17.0682 20.128 18.6868 20.128 20.4814C20.128 22.2759 19.7286 23.8857 18.9297 25.3108C18.1135 26.7535 17.0107 27.8707 15.6214 28.6625C14.2321 29.4718 12.6952 29.8764 11.0106 29.8764C9.3087 29.8764 1.63318 41.7698 0.243861 40.9605C-1.14546 40.1688 3.89035 26.7623 3.09149 25.3372C2.29263 23.9121 1.8932 22.2935 1.8932 20.4813C1.8932 18.6692 2.29263 17.0506 3.09149 15.6255C3.89035 14.2004 4.98444 13.0832 6.37376 12.2739C7.76308 11.4821 9.3087 11.0863 11.0106 11.0863ZM11.0106 13.1711C9.74286 13.1711 8.60536 13.4702 7.5981 14.0684C6.57348 14.6666 5.77462 15.5199 5.20152 16.6283C4.61106 17.7367 4.31583 19.0211 4.31583 20.4813C4.31583 21.9592 4.61106 23.2436 5.20152 24.3344C5.77462 25.4428 6.56479 26.2961 7.57205 26.8943C8.57931 27.4925 9.7255 27.7916 11.0106 27.7916C12.2957 27.7916 13.4419 27.4925 14.4492 26.8943C15.4564 26.2961 16.2553 25.4428 16.8458 24.3344C17.4189 23.2436 17.7054 21.9592 17.7054 20.4814C17.7054 19.0211 17.4189 17.7367 16.8458 16.6283C16.2553 15.5199 15.4564 14.6666 14.4492 14.0684C13.4246 13.4702 12.2784 13.1711 11.0106 13.1711Z" fill="white"/>
</svg>
